<svg width="801" height="130" viewBox="0 0 801 130" fill="none" xmlns="http://www.w3.org/2000/svg">
<path d="M37.2749 114.39H37.2834H37.2835H37.2836H37.2836H37.2837H37.2838H37.2838H37.2839H37.284H37.284H37.2841H37.2841H37.2842H37.2843H37.2843H37.2844H37.2845H37.2845H37.2846H37.2846H37.2847H37.2848H37.2848H37.2849H37.285H37.285H37.2851H37.2851H37.2852H37.2853H37.2853H37.2854H37.2854H37.2855H37.2856H37.2856H37.2857H37.2858H37.2858H37.2859H37.2859H37.286H37.2861H37.2861H37.2862H37.2863H37.2863H37.2864H37.2864H37.2865H37.2866H37.2866H37.2867H37.2867H37.2868H37.2869H37.2869H37.287H37.287H37.2871H37.2872H37.2872H37.2873H37.2874H37.2874H37.2875H37.2875H37.2876H37.2877H37.2877H37.2878H37.2878H37.2879H37.288H37.288H37.2881H37.2881H37.2882H37.2883H37.2883H37.2884H37.2885H37.2885H37.2886H37.2886H37.2887H37.2888H37.2888H37.2889H37.2889H37.289H37.2891H37.2891H37.2892H37.2893H37.2893H37.2894H37.2894H37.2895H37.2896H37.2896H37.2897H37.2898H37.2898H37.2899H37.2899H37.29H37.2901H37.2901H37.2902H37.2902H37.2903H37.2904H37.2904H37.2905H37.2906H37.2906H37.2907H37.2908H37.2908H37.2909H37.2909H37.291H37.2911H37.2911H37.2912H37.2913H37.2913H37.2914C38.3775 114.39 39.4399 113.943 40.1873 113.12C40.8436 112.396 48.631 103.755 56.2664 92.6252C60.0838 87.0609 63.8917 80.8338 66.7517 74.6328C69.5974 68.4631 71.5828 62.1547 71.5828 56.4724C71.5825 38.4575 56.0909 24 37.2914 24C18.4919 24 3 38.4575 3 56.4724C3 62.0145 4.98945 68.2511 7.83096 74.383C10.6888 80.5501 14.4936 86.7893 18.3078 92.3851C25.9347 103.574 33.7132 112.355 34.3732 113.095C35.1178 113.93 36.1839 114.385 37.2749 114.39ZM52.1389 84.9524C46.7302 93.2712 40.7723 100.668 37.3132 104.772C33.8579 100.617 27.8862 93.1182 22.4632 84.7456C19.2966 79.8568 16.343 74.7094 14.187 69.785C12.0175 64.83 10.7259 60.2568 10.7259 56.4724C10.7259 42.8209 22.5341 31.516 37.2914 31.516C52.0486 31.516 63.8568 42.8209 63.8568 56.4724C63.8568 60.3835 62.5629 65.0257 60.3994 70.0028C58.2477 74.9529 55.3 80.0906 52.1389 84.9524Z" fill="white" stroke="white" stroke-width="4"/>
<path d="M37.2914 41.9325C28.6271 41.9325 21.5815 48.978 21.5815 57.6424C21.5815 66.3068 28.6271 73.3523 37.2914 73.3523C45.9558 73.3523 53.0013 66.3068 53.0013 57.6424C53.0013 48.978 45.9558 41.9325 37.2914 41.9325ZM37.2914 65.6312C32.8881 65.6312 29.3024 62.0457 29.3024 57.6421C29.3024 53.2386 32.8879 49.6531 37.2914 49.6531C41.695 49.6531 45.2805 53.2386 45.2805 57.6421C45.2805 62.0456 41.6946 65.6312 37.2914 65.6312Z" fill="white" stroke="white" stroke-width="4"/>
<path d="M94.7031 26.2339H139.344C146.083 26.2339 151.922 26.9451 156.864 28.3677C161.805 29.7528 165.904 31.7743 169.161 34.4321C172.418 37.09 174.833 40.3281 176.405 44.1465C178.014 47.9648 178.819 52.2886 178.819 57.1177C178.819 60.3745 178.426 63.4816 177.64 66.439C176.854 69.3589 175.637 72.0542 173.99 74.5249C172.381 76.9956 170.34 79.2043 167.87 81.1509C165.399 83.0601 162.498 84.651 159.166 85.9238L178.258 114H156.471L139.962 89.0684H139.457L112.503 89.0122V114H94.7031V26.2339ZM139.793 73.6265C143.163 73.6265 146.101 73.2334 148.609 72.4473C151.155 71.6611 153.27 70.5568 154.955 69.1343C156.677 67.7118 157.949 65.9897 158.773 63.9683C159.634 61.9093 160.064 59.6258 160.064 57.1177C160.064 52.2137 158.38 48.4328 155.011 45.7749C151.642 43.0796 146.569 41.7319 139.793 41.7319H112.503V73.6265H139.793ZM194.71 80.6455C194.71 76.1533 195.628 71.867 197.462 67.7866C199.296 63.6688 201.935 60.0376 205.379 56.8931C208.823 53.7485 213.035 51.2404 218.014 49.3687C223.03 47.4969 228.72 46.561 235.084 46.561C241.41 46.561 247.101 47.5156 252.154 49.4248C257.245 51.2965 261.55 53.8796 265.069 57.1738C268.626 60.4681 271.34 64.3426 273.211 68.7974C275.121 73.2521 276.075 78.0251 276.075 83.1162C276.075 83.7526 276.056 84.4451 276.019 85.1938C276.019 85.9051 275.982 86.5602 275.907 87.1592H213.241C213.952 89.1432 215.094 90.9588 216.666 92.606C218.276 94.2531 220.278 95.6756 222.674 96.8735C225.07 98.0715 227.84 99.0073 230.985 99.6812C234.129 100.318 237.611 100.636 241.429 100.636C245.248 100.636 249.047 100.243 252.828 99.4565C256.609 98.633 260.222 97.6035 263.666 96.3682L269.281 109.059C267.11 110.069 264.901 110.968 262.655 111.754C260.446 112.503 258.125 113.139 255.692 113.663C253.296 114.15 250.769 114.524 248.111 114.786C245.491 115.048 242.721 115.179 239.801 115.179C232.351 115.179 225.819 114.281 220.204 112.484C214.588 110.687 209.89 108.235 206.109 105.128C202.328 102.021 199.483 98.3709 197.574 94.1782C195.665 89.9855 194.71 85.4746 194.71 80.6455ZM258.443 74.188C257.844 72.3537 256.909 70.6504 255.636 69.0781C254.4 67.4684 252.847 66.0833 250.975 64.9229C249.103 63.7249 246.932 62.7891 244.461 62.1152C241.991 61.4414 239.277 61.1045 236.319 61.1045C233.175 61.1045 230.311 61.4601 227.728 62.1714C225.145 62.8826 222.88 63.8372 220.934 65.0352C218.987 66.2331 217.359 67.6182 216.048 69.1904C214.776 70.7627 213.84 72.4285 213.241 74.188H258.443ZM296.065 26.2339H342.335C349.073 26.2339 354.913 26.9639 359.854 28.4238C364.796 29.8838 368.895 31.9989 372.152 34.769C375.409 37.5018 377.823 40.8522 379.396 44.8203C381.005 48.7884 381.81 53.2619 381.81 58.2407C381.81 62.9201 381.024 67.2438 379.452 71.2119C377.879 75.18 375.465 78.624 372.208 81.5439C368.989 84.4264 364.908 86.6912 359.967 88.3384C355.025 89.9481 349.186 90.7529 342.447 90.7529L313.866 90.6968V114H296.065V26.2339ZM342.784 75.311C346.153 75.311 349.092 74.918 351.6 74.1318C354.146 73.3083 356.261 72.1665 357.945 70.7065C359.667 69.2091 360.94 67.4123 361.764 65.3159C362.625 63.1821 363.055 60.8237 363.055 58.2407C363.055 53.0373 361.352 48.9943 357.945 46.1118C354.576 43.1919 349.522 41.7319 342.784 41.7319H313.866V75.311H342.784ZM399.667 20.8433H416.288V114H399.667V20.8433ZM434.481 93.1113C434.481 89.9294 435.174 87.0282 436.559 84.4077C437.944 81.7873 440.021 79.5412 442.792 77.6694C445.562 75.7603 449.006 74.3003 453.124 73.2896C457.279 72.2414 462.108 71.7173 467.611 71.7173C471.691 71.7173 475.978 72.0168 480.47 72.6157C484.999 73.2147 489.66 74.1318 494.452 75.3672C494.264 73.2708 493.628 71.3429 492.542 69.5835C491.457 67.7866 489.941 66.2518 487.994 64.979C486.085 63.6688 483.764 62.658 481.031 61.9468C478.336 61.2355 475.266 60.8799 471.822 60.8799C469.951 60.8799 467.892 60.9922 465.646 61.2168C463.399 61.4414 461.078 61.7783 458.683 62.2275C456.287 62.6768 453.91 63.2383 451.551 63.9121C449.23 64.5859 447.059 65.3908 445.038 66.3267L439.984 52.6816C442.492 51.7832 445.169 50.9596 448.014 50.2109C450.896 49.4622 453.835 48.8258 456.83 48.3018C459.824 47.7402 462.819 47.3097 465.814 47.0103C468.809 46.7108 471.71 46.561 474.518 46.561C486.909 46.561 496.118 49.7243 502.145 56.0508C508.172 62.3773 511.185 72.0729 511.185 85.1377V114H494.564V107.767C492.842 108.778 490.951 109.732 488.893 110.631C486.871 111.529 484.662 112.315 482.267 112.989C479.871 113.663 477.288 114.187 474.518 114.562C471.785 114.973 468.884 115.179 465.814 115.179C460.648 115.179 456.1 114.618 452.169 113.495C448.276 112.372 445.019 110.818 442.398 108.834C439.778 106.85 437.794 104.529 436.446 101.871C435.136 99.1758 434.481 96.2559 434.481 93.1113ZM452 92.5498C452 93.6354 452.281 94.6836 452.843 95.6943C453.404 96.6676 454.303 97.5474 455.538 98.3335C456.773 99.0822 458.346 99.6999 460.255 100.187C462.201 100.636 464.541 100.86 467.274 100.86C470.194 100.86 473.02 100.598 475.753 100.074C478.486 99.5501 481.031 98.8576 483.39 97.9966C485.748 97.1356 487.882 96.1436 489.791 95.0205C491.7 93.8975 493.291 92.737 494.564 91.5391V88.6191C492.018 87.9079 489.492 87.3089 486.983 86.8223C484.513 86.3356 482.136 85.9613 479.852 85.6992C477.606 85.3997 475.472 85.1938 473.451 85.0815C471.467 84.9692 469.726 84.9131 468.229 84.9131C465.121 84.9131 462.538 85.119 460.479 85.5308C458.421 85.9425 456.755 86.5041 455.482 87.2153C454.209 87.8892 453.311 88.694 452.787 89.6299C452.263 90.5658 452 91.5391 452 92.5498ZM529.21 81.0386C529.21 76.172 530.09 71.6424 531.849 67.4497C533.646 63.2196 536.248 59.5697 539.654 56.5C543.098 53.3929 547.291 50.9596 552.232 49.2002C557.211 47.4408 562.883 46.561 569.247 46.561C572.017 46.561 574.806 46.7295 577.613 47.0664C580.421 47.4033 583.116 47.89 585.699 48.5264C588.32 49.1253 590.772 49.8553 593.055 50.7163C595.339 51.5399 597.323 52.457 599.007 53.4678L591.314 65.9897C587.683 64.3052 584.239 63.0698 580.982 62.2837C577.763 61.4976 574.487 61.1045 571.156 61.1045C567.337 61.1045 563.912 61.6099 560.88 62.6206C557.848 63.5939 555.265 64.979 553.131 66.7759C551.035 68.5353 549.425 70.6317 548.302 73.0649C547.216 75.4608 546.673 78.0812 546.673 80.9263C546.673 83.7713 547.254 86.4105 548.414 88.8438C549.612 91.2396 551.278 93.3172 553.412 95.0767C555.583 96.7987 558.185 98.165 561.217 99.1758C564.286 100.149 567.693 100.636 571.437 100.636C575.554 100.636 579.429 100.056 583.06 98.895C586.729 97.7345 590.135 96.181 593.28 94.2344L600.973 106.756C598.989 107.954 596.836 109.077 594.515 110.125C592.194 111.136 589.705 112.016 587.047 112.765C584.426 113.513 581.656 114.094 578.736 114.505C575.854 114.955 572.859 115.179 569.752 115.179C563.425 115.179 557.754 114.318 552.738 112.596C547.722 110.874 543.473 108.497 539.991 105.465C536.51 102.395 533.833 98.7827 531.961 94.6274C530.127 90.4722 529.21 85.9425 529.21 81.0386ZM615.741 80.6455C615.741 76.1533 616.658 71.867 618.492 67.7866C620.326 63.6688 622.966 60.0376 626.41 56.8931C629.854 53.7485 634.065 51.2404 639.044 49.3687C644.06 47.4969 649.75 46.561 656.114 46.561C662.441 46.561 668.131 47.5156 673.185 49.4248C678.276 51.2965 682.581 53.8796 686.1 57.1738C689.656 60.4681 692.37 64.3426 694.242 68.7974C696.151 73.2521 697.105 78.0251 697.105 83.1162C697.105 83.7526 697.087 84.4451 697.049 85.1938C697.049 85.9051 697.012 86.5602 696.937 87.1592H634.271C634.982 89.1432 636.124 90.9588 637.696 92.606C639.306 94.2531 641.309 95.6756 643.705 96.8735C646.1 98.0715 648.871 99.0073 652.015 99.6812C655.16 100.318 658.641 100.636 662.459 100.636C666.278 100.636 670.077 100.243 673.858 99.4565C677.639 98.633 681.252 97.6035 684.696 96.3682L690.311 109.059C688.14 110.069 685.931 110.968 683.685 111.754C681.476 112.503 679.155 113.139 676.722 113.663C674.326 114.15 671.799 114.524 669.142 114.786C666.521 115.048 663.751 115.179 660.831 115.179C653.382 115.179 646.849 114.281 641.234 112.484C635.619 110.687 630.921 108.235 627.14 105.128C623.359 102.021 620.514 98.3709 618.604 94.1782C616.695 89.9855 615.741 85.4746 615.741 80.6455ZM679.474 74.188C678.875 72.3537 677.939 70.6504 676.666 69.0781C675.431 67.4684 673.877 66.0833 672.005 64.9229C670.134 63.7249 667.962 62.7891 665.492 62.1152C663.021 61.4414 660.307 61.1045 657.35 61.1045C654.205 61.1045 651.341 61.4601 648.758 62.1714C646.175 62.8826 643.91 63.8372 641.964 65.0352C640.017 66.2331 638.389 67.6182 637.079 69.1904C635.806 70.7627 634.87 72.4285 634.271 74.188H679.474ZM709.908 81.1509C709.908 75.8726 710.9 71.1183 712.884 66.8882C714.868 62.6206 717.601 58.9894 721.083 55.9946C724.601 52.9624 728.757 50.6414 733.548 49.0317C738.377 47.3846 743.6 46.561 749.215 46.561C751.611 46.561 753.969 46.7108 756.29 47.0103C758.648 47.3097 760.895 47.7215 763.028 48.2456C765.2 48.7697 767.221 49.4061 769.093 50.1548C771.002 50.866 772.687 51.6522 774.146 52.5132V20.8433H790.768V114H774.146V107.767C772.687 108.778 770.965 109.732 768.98 110.631C766.996 111.529 764.863 112.315 762.579 112.989C760.296 113.663 757.918 114.187 755.448 114.562C753.014 114.973 750.6 115.179 748.204 115.179C742.589 115.179 737.423 114.356 732.706 112.708C728.027 111.061 724.002 108.74 720.633 105.746C717.264 102.751 714.625 99.1758 712.716 95.0205C710.844 90.8278 709.908 86.2046 709.908 81.1509ZM727.372 81.1509C727.372 83.8088 727.896 86.3169 728.944 88.6753C730.029 91.0337 731.564 93.1113 733.548 94.9082C735.57 96.6676 737.984 98.0715 740.792 99.1196C743.637 100.13 746.819 100.636 750.338 100.636C752.584 100.636 754.83 100.43 757.076 100.018C759.322 99.5688 761.475 98.9512 763.534 98.165C765.63 97.3789 767.577 96.4243 769.374 95.3013C771.208 94.1782 772.799 92.9242 774.146 91.5391V68.5728C772.462 67.2251 770.684 66.0833 768.812 65.1475C766.94 64.2116 765.031 63.4442 763.084 62.8452C761.138 62.2463 759.173 61.8158 757.188 61.5537C755.204 61.2542 753.277 61.1045 751.405 61.1045C747.586 61.1045 744.18 61.6286 741.185 62.6768C738.228 63.6875 735.72 65.0913 733.661 66.8882C731.639 68.6851 730.086 70.8001 729 73.2334C727.914 75.6667 727.372 78.3058 727.372 81.1509Z" fill="white"/>
</svg>
