<svg width="67" height="67" viewBox="0 0 67 67" fill="none" xmlns="http://www.w3.org/2000/svg">
<mask id="mask0_311_143" style="mask-type:alpha" maskUnits="userSpaceOnUse" x="0" y="0" width="67" height="67">
<rect width="67" height="67" fill="#D9D9D9"/>
</mask>
<g mask="url(#mask0_311_143)">
<path d="M46.621 40.4791L57.2293 31.4062L65.6043 32.1041L53.321 42.7822L56.9502 58.6249L49.8314 54.2978L46.621 40.4791ZM40.0606 20.0999L37.1293 13.2603L40.3397 5.58325L46.7606 20.728L40.0606 20.0999ZM20.5189 46.9697L29.3127 41.6655L38.1064 47.0395L35.8033 36.9895L43.5502 30.2895L33.3606 29.3822L29.3127 19.8905L25.2647 29.3124L15.0752 30.2197L22.822 36.9895L20.5189 46.9697ZM12.0741 58.6249L16.6106 39.0135L1.396 25.8228L21.496 24.078L29.3127 5.58325L37.1293 24.078L57.2293 25.8228L42.0147 39.0135L46.5512 58.6249L29.3127 48.226L12.0741 58.6249Z" fill="white"/>
</g>
</svg>
